<?xml version="1.0" encoding="UTF-8" standalone="no"?>
<!-- Created with Inkscape (http://www.inkscape.org/) -->

<svg
   xmlns:dc="http://purl.org/dc/elements/1.1/"
   xmlns:cc="http://creativecommons.org/ns#"
   xmlns:rdf="http://www.w3.org/1999/02/22-rdf-syntax-ns#"
   xmlns:svg="http://www.w3.org/2000/svg"
   xmlns="http://www.w3.org/2000/svg"
   xmlns:sodipodi="http://sodipodi.sourceforge.net/DTD/sodipodi-0.dtd"
   xmlns:inkscape="http://www.inkscape.org/namespaces/inkscape"
   width="1300"
   height="532.83331"
   viewBox="0 0 343.95832 140.97882"
   version="1.1"
   id="svg8"
   inkscape:export-filename="C:\Work\blog\repo\static\images\yoda_getters_setters.png"
   inkscape:export-xdpi="96"
   inkscape:export-ydpi="96"
   inkscape:version="0.92.0 r15299"
   sodipodi:docname="yoda.svg">
  <defs
     id="defs2">
    <clipPath
       id="clipPath3696"
       clipPathUnits="userSpaceOnUse">
      <path
         inkscape:connector-curvature="0"
         id="path3694"
         d="M 0,432 H 648 V 0 H 0 Z" />
    </clipPath>
  </defs>
  <sodipodi:namedview
     id="base"
     pagecolor="#ffffff"
     bordercolor="#666666"
     borderopacity="1.0"
     inkscape:pageopacity="0.0"
     inkscape:pageshadow="2"
     inkscape:zoom="1.4"
     inkscape:cx="366.939"
     inkscape:cy="214.0699"
     inkscape:document-units="mm"
     inkscape:current-layer="layer1"
     showgrid="false"
     units="px"
     fit-margin-top="0"
     fit-margin-left="0"
     fit-margin-right="0"
     fit-margin-bottom="0"
     inkscape:window-width="3072"
     inkscape:window-height="1603"
     inkscape:window-x="635"
     inkscape:window-y="-13"
     inkscape:window-maximized="1" />
  <metadata
     id="metadata5">
    <rdf:RDF>
      <cc:Work
         rdf:about="">
        <dc:format>image/svg+xml</dc:format>
        <dc:type
           rdf:resource="http://purl.org/dc/dcmitype/StillImage" />
        <dc:title></dc:title>
      </cc:Work>
    </rdf:RDF>
  </metadata>
  <g
     inkscape:label="Layer 1"
     inkscape:groupmode="layer"
     id="layer1"
     transform="translate(-5.1467775,-7.2844017)">
    <rect
       id="rect4122"
       width="347.92709"
       height="144.19792"
       x="3.8238609"
       y="5.9551797"
       style="stroke-width:0.26458332;fill:#ffffff"
       inkscape:export-xdpi="96"
       inkscape:export-ydpi="96" />
    <g
       transform="matrix(0.35277777,0,0,-0.35277777,-39.32842,153.90766)"
       inkscape:label="Yoda"
       id="g3688">
      <g
         id="g3690">
        <g
           clip-path="url(#clipPath3696)"
           id="g3692">
          <g
             transform="translate(398.125,256.5)"
             id="g3698">
            <path
               inkscape:connector-curvature="0"
               id="path3700"
               style="fill:#000000;fill-opacity:1;fill-rule:nonzero;stroke:none"
               d="m 0,0 c 0,0 4.375,2.25 7,4.125 0,0 19.125,-4.75 19.75,9.125 0,0 58.25,10 35,35.75 0,0 2.875,3.375 2.625,7.5 0,0 8.75,-0.875 13.375,5.875 4.625,6.75 18.5,23.5 38.875,20.5 0,0 -13.125,13.625 -43.125,9 -30,-4.625 -31.375,-1.5 -31.375,-1.5 0,0 -5,20.5 -33.5,41.25 -28.5,20.75 -58.75,-3 -70.125,-16.25 0,0 -25.5,11.75 -47.25,43.75 0,0 -11.875,-32.75 8.125,-67.875 0,0 -5,-3.375 -13,7.25 0,0 -2.875,-12.75 7.125,-19 0,0 -7.625,-0.75 -16.25,7 0,0 -1,-11.5 10.5,-29.75 0,0 -11.375,2.75 -19.375,3.875 0,0 -1.875,-12.875 -11,-22 -9.125,-9.125 -35,-2.375 -35,-2.375 0,0 16,-20 14.25,-68.25 0,0 -18.5,-59 -25,-122 0,0 -6.25,-1.5 -20,3 0,0 2.5,-23.25 -4.75,-32 0,0 -11.25,0.5 -15.25,3 0,0 -7.5,-19 -37.25,-34 0,0 121,-24.25 160.75,-4.5 0,0 47.25,-3.75 71.75,-0.25 v 4 l 30.5,0.25 -0.25,-25.75 17.75,-0.25 c 0,0 -1.25,23.5 1,25.5 0,0 19.5,-0.5 21,-1.5 0,0 -15.25,24.5 -15.25,31 0,0 6.5,26 18,41.5 l -5.75,9.75 c 0,0 14.75,-9.75 16.5,-13.25 0,0 46.75,42.25 30.5,112.25 0,0 -1.5,6.5 2.25,12 0,0 -18.25,4 -27,21.75 0,0 -8,-3.5 -16.5,-10.25 l -4.25,4.5 c 0,0 -11,-12.25 -22.5,-12.25 0,0 -0.5,-4 0.5,-5.75 0,0 -9.25,4 -11.25,8.25 0,0 4,6 5.5,6.5 0,0 -8,9.25 -7.625,10.5" />
          </g>
          <g
             transform="translate(391.623,109.876)"
             id="g3702">
            <path
               inkscape:connector-curvature="0"
               id="path3704"
               style="fill:#e4e7d6;fill-opacity:1;fill-rule:nonzero;stroke:none"
               d="m 0,0 c 0,0 -5.991,-10.54 -8.1,-12.427 0,0 -11.318,1.776 -28.96,9.764 0,0 -21.857,-44.382 -53.59,-65.574 0,0 23.411,-5.105 59.471,-2.442 0,0 0.334,38.169 3.441,41.276 0,0 -0.334,-31.068 1.219,-34.84 l 26.408,-0.333 c 0,0 -0.333,63.8 0.111,64.576" />
          </g>
          <g
             transform="translate(395.0625,117.7539)"
             id="g3706">
            <path
               inkscape:connector-curvature="0"
               id="path3708"
               style="fill:#e4e7d6;fill-opacity:1;fill-rule:nonzero;stroke:none"
               d="m 0,0 -0.888,-72.454 1.776,-0.11 c 1.552,26.185 6.768,35.616 6.768,35.616 l 5.991,11.65 c 0,0 -6.213,20.969 -6.657,40.498 z" />
          </g>
          <g
             transform="translate(404.3828,141.3887)"
             id="g3710">
            <path
               inkscape:connector-curvature="0"
               id="path3712"
               style="fill:#e4e7d6;fill-opacity:1;fill-rule:nonzero;stroke:none"
               d="m 0,0 1.221,1.331 c 0,0 3.772,-12.427 9.875,-22.856 0,0 -1.664,-14.756 -4.66,-20.527 0,0 -7.768,27.739 -6.436,42.052" />
          </g>
          <g
             transform="translate(401.0547,168.1289)"
             id="g3714">
            <path
               inkscape:connector-curvature="0"
               id="path3716"
               style="fill:#1d1512;fill-opacity:1;fill-rule:nonzero;stroke:none"
               d="m 0,0 c 0,0 12.87,-41.385 18.085,-49.374 0,0 -5.438,-23.079 -7.878,-28.516 -2.44,-5.436 -9.652,-13.98 -11.428,-34.506 0,0 12.537,35.727 23.966,51.372 0,0 -3.883,16.643 -3.661,20.416 0.222,3.772 -1.555,20.415 -8.877,36.947 0,0 -1.108,1.996 0.223,3.994 1.331,1.998 22.967,26.741 49.929,16.2 0,0 0.111,-5.327 -1.665,-8.322 -1.775,-2.995 -5.325,-13.536 -5.325,-13.536 0,0 4.771,-5.105 5.991,-8.433 0,0 -1.443,19.528 11.761,32.732 0,0 -5.103,7.766 -14.978,7.878 C 46.268,26.963 20.971,19.417 15.645,19.528 15.645,19.528 7.989,5.437 0,0" />
          </g>
          <g
             transform="translate(428.9043,179.0029)"
             id="g3718">
            <path
               inkscape:connector-curvature="0"
               id="path3720"
               style="fill:#e4e7d6;fill-opacity:1;fill-rule:nonzero;stroke:none"
               d="m 0,0 c 0,0 -5.992,-14.313 -4.993,-26.851 0,0 -3.994,13.98 -4.771,21.081 0,0 5.77,4.549 9.764,5.77" />
          </g>
          <g
             transform="translate(417.8086,172.3457)"
             id="g3722">
            <path
               inkscape:connector-curvature="0"
               id="path3724"
               style="fill:#453825;fill-opacity:1;fill-rule:nonzero;stroke:none"
               d="m 0,0 c 0,0 -4.549,-3.772 -4.771,-5.437 -0.221,-1.664 7.102,-18.418 7.545,-20.859 0.444,-2.44 1.997,-28.627 5.659,-37.281 l 0.22,-1.588 c -7.629,-8.901 -16.712,-32.181 -16.712,-32.181 -10.75,-19.5 -11,-36 -11,-36 v -20.25 l 10.25,-0.5 c 0,0 -2.75,50 24.5,92 0,0 -10,20.25 -9,37 0,0 -6.382,14.942 -6.691,25.096" />
          </g>
          <g
             transform="translate(437.75,183)"
             id="g3726">
            <path
               inkscape:connector-curvature="0"
               id="path3728"
               style="fill:#e4e7d6;fill-opacity:1;fill-rule:nonzero;stroke:none"
               d="m 0,0 c 0,0 -6,-43.25 9.75,-67 0,0 -14.25,11 -17.5,12.25 0,0 -10.25,27 4,53 z" />
          </g>
          <g
             transform="translate(440.75,183.5)"
             id="g3730">
            <path
               inkscape:connector-curvature="0"
               id="path3732"
               style="fill:#aaae9f;fill-opacity:1;fill-rule:nonzero;stroke:none"
               d="m 0,0 c 0,0 9.25,2.25 12.25,0.5 3,-1.75 -4.75,-14.75 -10.75,-16.25 0,0 11.5,-6.5 19.5,-21.25 0,0 0,25 16.25,44.5 0,0 -3.5,10.5 -8.25,13.25 0,0 4.75,4.75 1.5,9.25 0,0 4.5,4.5 4.75,6.25 0,0 16,-54.5 -26.25,-104.25 0,0 -11.75,18.25 -9,68" />
          </g>
          <g
             transform="translate(455.917,184.5)"
             id="g3734">
            <path
               inkscape:connector-curvature="0"
               id="path3736"
               style="fill:#443d2a;fill-opacity:1;fill-rule:nonzero;stroke:none"
               d="m 0,0 c 0,0 3.334,-1.668 -0.666,-8.584 -4,-6.916 -7.667,-8 -7.667,-8 0,0 4.417,-3.416 4.917,-4.916 0,0 6.666,15.666 7.583,20.333 z" />
          </g>
          <g
             transform="translate(445.501,207.25)"
             id="g3738">
            <path
               inkscape:connector-curvature="0"
               id="path3740"
               style="fill:#443d2a;fill-opacity:1;fill-rule:nonzero;stroke:none"
               d="m 0,0 c 0,0 19.249,-0.584 23.416,-5.834 4.167,-5.25 7.084,-9.833 7.084,-9.833 0,0 -1.5,-3.583 -3.75,-1.5 -2.25,2.083 -8.918,9.083 -23.584,6 -14.666,-3.083 -30.75,-6.25 -30.75,-6.25 0,0 1.75,4.416 1.75,5.083 0,0 19.334,-2.332 25.834,12.334" />
          </g>
          <g
             transform="translate(456.084,208.166)"
             id="g3742">
            <path
               inkscape:connector-curvature="0"
               id="path3744"
               style="fill:#201816;fill-opacity:1;fill-rule:nonzero;stroke:none"
               d="m 0,0 c 0,0 1.916,4.084 2.583,4.167 l 7.25,-7.083 z" />
          </g>
          <g
             transform="translate(454.501,208.25)"
             id="g3746">
            <path
               inkscape:connector-curvature="0"
               id="path3748"
               style="fill:#201816;fill-opacity:1;fill-rule:nonzero;stroke:none"
               d="M 0,0 -7.417,0.916 -4,6.75 c 0,0 2.084,-5.166 4,-6.75" />
          </g>
          <g
             transform="translate(459.001,215.9165)"
             id="g3750">
            <path
               inkscape:connector-curvature="0"
               id="path3752"
               style="fill:#a2b98d;fill-opacity:1;fill-rule:nonzero;stroke:none"
               d="m 0,0 9.166,-9.5 c 0,0 2.916,1.917 1.5,5.917 0,0 -3.916,-2.5 -9.166,4.333 z" />
          </g>
          <g
             transform="translate(455.417,211.666)"
             id="g3754">
            <path
               inkscape:connector-curvature="0"
               id="path3756"
               style="fill:#a2b98d;fill-opacity:1;fill-rule:nonzero;stroke:none"
               d="m 0,0 c 0,0 2.333,6.834 4.75,8 0,0 4.584,-5.666 6.917,-4.666 2.333,1 8.75,7.416 9.75,17.166 0,0 -7.083,1.583 -11.5,6.417 0,0 -5.166,-7.083 -12.333,-9.167 0,0 -0.918,-15.167 2.416,-17.75" />
          </g>
          <g
             transform="translate(449.667,226.9165)"
             id="g3758">
            <path
               inkscape:connector-curvature="0"
               id="path3760"
               style="fill:#a2b98d;fill-opacity:1;fill-rule:nonzero;stroke:none"
               d="m 0,0 c 0,0 0.084,-8.75 0.834,-9.667 0,0 -3.084,-0.333 -4.417,-3.833 -1.333,-3.5 -12.417,-26.667 -42.083,-8.083 0,0 7.667,16.333 10.417,18.5 l 6.417,-6.084 c 0,0 1.083,5.75 1.083,8.167 0,0 5.999,-0.583 11.583,4.083 0,0 1.083,-6.666 6.25,-10.916 0,0 4.751,6.916 5.084,8.666 0,0 2.748,-1.5 4.832,-0.833" />
          </g>
          <g
             transform="translate(439.751,223.75)"
             id="g3762">
            <path
               inkscape:connector-curvature="0"
               id="path3764"
               style="fill:#a2b98d;fill-opacity:1;fill-rule:nonzero;stroke:none"
               d="M 0,0 C 0,0 -5.5,8.5 -2.75,16.833 L 12.916,27.25 c 0,0 7.834,-9.917 10.167,-10.917 0,0 -6.916,-6.833 -11.083,-8.5 C 12,7.833 9.916,7.167 9.916,4.75 9.916,4.75 6.167,5.583 5,7.5 5,7.5 0.834,0 0,0" />
          </g>
          <g
             transform="translate(435.584,242.9165)"
             id="g3766">
            <path
               inkscape:connector-curvature="0"
               id="path3768"
               style="fill:#a2b98d;fill-opacity:1;fill-rule:nonzero;stroke:none"
               d="m 0,0 c 0,0 -2.667,-6 -2,-10.333 0,0 -5.25,-5.084 -12.5,-3 0,0 -1.999,-4.667 -1.583,-7.584 0,0 -6.083,4.917 -6.5,12.75 0,0 13.582,2.334 18.916,10.334 0,0 1.584,1.166 3.667,-2.167" />
          </g>
          <g
             transform="translate(147.1665,45.833)"
             id="g3770">
            <path
               inkscape:connector-curvature="0"
               id="path3772"
               style="fill:#e4e7d6;fill-opacity:1;fill-rule:nonzero;stroke:none"
               d="M 0,0 C 0,0 89.667,-16.332 122.333,-10.666 155,-5 172.334,8.667 202,63.667 c 0,0 -78,26.333 -67,131 0,0 4,-78 39.333,-104 35.334,-26 62.334,-33.666 62.334,-33.666 0,0 -11.334,68.666 26.666,119.666 0,0 -27.666,-1 -41.666,6.333 0,0 -6.334,-23 -33.667,-32.333 -27.333,-9.333 -35,10 -22.333,16.333 0,0 -7,-10.667 0.666,-13 C 174,151.667 197,148.333 215,179.333 c 0,0 -21,19 -29.667,32.334 -8.666,13.333 -29.666,33 -53,26 -23.333,-7 -39.333,-31 -65,-183 0,0 49.667,-2.333 88,20 0,0 -38,-33.001 -108,-20.334 0,0 0.667,-22 -5.666,-27 0,0 33,-8 87.333,14 0,0 -38.333,-26.332 -105.667,-15.999 C 23.333,25.334 18,10.666 0,0" />
          </g>
          <g
             transform="translate(416.1816,195.4189)"
             id="g3774">
            <path
               inkscape:connector-curvature="0"
               id="path3776"
               style="fill:#aaae9f;fill-opacity:1;fill-rule:nonzero;stroke:none"
               d="m 0,0 c 0,0 -7.086,-14.32 -19.044,-26.278 l 5.609,-19.192 c 0,0 -8.119,-32.331 -17.419,-44.584 0,0 -1.92,66.581 16.976,97.14 0,0 6.35,-6.643 13.878,-7.086" />
          </g>
          <g
             transform="translate(398.6133,237.3442)"
             id="g3778">
            <path
               inkscape:connector-curvature="0"
               id="path3780"
               style="fill:#e4e7d6;fill-opacity:1;fill-rule:nonzero;stroke:none"
               d="m 0,0 c 0,0 5.757,-7.381 14.024,-9.596 0,0 -12.105,-1.919 -18.453,-1.033 0,0 0.886,6.938 4.429,10.629" />
          </g>
          <g
             transform="translate(402.0088,246.2017)"
             id="g3782">
            <path
               inkscape:connector-curvature="0"
               id="path3784"
               style="fill:#e4e7d6;fill-opacity:1;fill-rule:nonzero;stroke:none"
               d="m 0,0 c 0,0 -9.3,-11.81 -10.776,-19.191 0,0 -4.429,-0.886 -6.791,1.033 0,0 1.033,20.372 0.147,22.439 l 11.662,5.315 c 0,0 2.51,-6.939 5.758,-9.596" />
          </g>
          <g
             transform="translate(381.9316,250.188)"
             id="g3786">
            <path
               inkscape:connector-curvature="0"
               id="path3788"
               style="fill:#86644b;fill-opacity:1;fill-rule:nonzero;stroke:none"
               d="m 0,0 c 0,0 1.328,-19.634 0.442,-21.701 0,0 -11.661,2.066 -15.5,4.576 0,0 -1.475,-2.657 -1.624,-3.986 0,0 -7.675,2.509 -14.762,10.039 l -0.591,4.724 c 0,0 19.487,1.329 32.035,6.348" />
          </g>
          <g
             transform="translate(349.4531,245.6113)"
             id="g3790">
            <path
               inkscape:connector-curvature="0"
               id="path3792"
               style="fill:#86644b;fill-opacity:1;fill-rule:nonzero;stroke:none"
               d="m 0,0 c 0,0 12.549,2.214 14.32,3.396 0,0 -14.762,16.829 -20.815,19.782 0,0 5.609,-14.025 6.495,-23.178" />
          </g>
          <g
             transform="translate(226.7769,287.8325)"
             id="g3794">
            <path
               inkscape:connector-curvature="0"
               id="path3796"
               style="fill:#e4e7d6;fill-opacity:1;fill-rule:nonzero;stroke:none"
               d="m 0,0 c 0,0 13.139,-20.816 11.367,-50.489 0,0 2.068,3.986 5.758,13.877 3.69,9.891 18.748,37.203 47.388,37.055 28.64,-0.148 47.241,-34.545 47.241,-34.545 0,0 -10.039,36.611 -52.555,42.517 0,0 -11.663,1.181 -25.097,-3.691 C 20.668,-0.148 8.415,-1.919 0,0" />
          </g>
          <g
             transform="translate(259.9932,296.2471)"
             id="g3798">
            <path
               inkscape:connector-curvature="0"
               id="path3800"
               style="fill:#e4e7d6;fill-opacity:1;fill-rule:nonzero;stroke:none"
               d="m 0,0 c 0,0 8.71,8.12 9.153,17.42 0,0 36.021,-6.495 53.589,-20.225 17.568,-13.729 22.735,-42.369 23.473,-49.012 l -4.577,5.019 C 81.638,-46.798 69.532,16.387 0,0" />
          </g>
          <g
             transform="translate(290.5527,384.3799)"
             id="g3802">
            <path
               inkscape:connector-curvature="0"
               id="path3804"
               style="fill:#a2b98d;fill-opacity:1;fill-rule:nonzero;stroke:none"
               d="m 0,0 c 0,0 12.548,-51.669 57.132,-62.003 0,0 6.643,21.7 -20.372,40.449 C 9.744,-2.805 2.953,19.635 2.953,19.635 c 0,0 13.582,-16.978 30.116,-28.345 16.534,-11.367 33.363,-25.244 34.692,-35.135 0,0 2.215,10.482 15.206,12.844 0,0 -7.676,12.99 -30.559,14.91 0,0 -2.066,0.59 -2.657,2.214 0,0 21.701,21.849 40.745,21.258 19.044,-0.59 39.269,-19.043 48.864,-32.33 0,0 2.806,-12.106 0.739,-14.172 0,0 2.952,5.905 2.804,9.448 0,0 6.053,-8.562 6.791,-13.286 0,0 1.035,2.066 0.739,3.395 0,0 13.728,-3.543 28.638,-0.147 14.91,3.395 28.345,2.362 32.626,-0.886 0,0 -15.944,2.067 -27.902,-3.543 -11.958,-5.61 -18.454,-7.381 -19.782,-7.234 0,0 -8.118,5.757 -12.843,5.757 0,0 12.253,-6.052 14.91,-11.81 0,0 -6.348,-2.657 -26.13,-1.919 0,0 0.738,5.758 9.743,9.301 0,0 -9.596,1.475 -11.81,-9.301 0,0 -1.919,-0.443 -1.181,1.181 0.738,1.624 5.02,12.696 -4.281,20.078 0,0 0.738,17.272 -15.796,21.11 0,0 1.92,10.482 -11.22,15.353 0,0 10.629,-8.857 8.858,-16.829 0,0 15.205,-2.657 15.648,-20.077 0,0 7.676,-3.395 5.462,-19.487 0,0 -3.543,-0.59 -17.272,6.496 -13.73,7.085 -26.279,15.943 -37.203,7.233 0,0 8.563,1.624 10.925,1.181 0,0 -4.873,-3.986 -6.496,-10.481 0,0 -8.414,2.067 -13.876,0.296 0,0 7.678,-0.444 9.301,-2.658 0,0 -7.234,-2.953 -9.153,-2.657 0,0 6.643,-0.591 12.991,2.066 0,0 0.592,-26.13 32.478,-18.01 0,0 -15.943,-23.62 -57.279,-33.806 0,0 23.619,-0.887 46.355,17.862 0,0 15.353,2.067 17.863,-0.147 0,0 -1.476,-3.395 -2.952,-3.986 0,0 3.837,0.886 5.904,3.1 0,0 3.987,-1.328 5.463,-2.952 l -6.349,-6.053 c 0,0 6.939,2.657 7.677,4.281 0,0 2.952,-2.51 3.396,-3.395 0,0 5.019,2.952 11.072,2.657 0,0 -1.182,-5.314 -16.092,-12.843 l -2.509,2.657 c 0,0 4.428,-13.729 -9.006,-13.877 -13.433,-0.148 -16.239,5.167 -16.239,5.167 0,0 3.691,-6.053 5.315,-6.496 0,0 -16.092,-7.677 -32.921,-12.844 0,0 -3.987,7.086 -5.315,7.529 0,0 19.487,5.611 23.178,10.039 0,0 -23.62,-8.119 -24.506,-7.972 0,0 -2.952,2.658 -4.429,3.691 0,0 12.4,7.233 13.581,7.529 0,0 -12.842,-3.248 -15.943,-5.167 0,0 -9.005,7.529 -12.4,9.301 0,0 -6.644,18.895 -27.164,27.901 0,0 -0.886,1.329 1.329,2.805 2.215,1.476 10.777,9.742 10.777,13.286 0,0 8.71,-4.871 10.481,-4.724 0,0 -43.552,23.388 -46.355,71.008" />
          </g>
          <g
             transform="translate(305.9209,379.166)"
             id="g3806">
            <path
               inkscape:connector-curvature="0"
               id="path3808"
               style="fill:#000000;fill-opacity:1;fill-rule:nonzero;stroke:none"
               d="m 0,0 c -2.192,-2.547 -4.44,-7.528 -4.442,-17.24 0.464,-0.825 0.937,-1.627 1.412,-2.418 0.576,10.696 2.589,15.646 4.541,17.893 C 0.993,-1.182 0.492,-0.593 0,0" />
          </g>
          <g
             transform="translate(320.7432,365.6929)"
             id="g3810">
            <path
               inkscape:connector-curvature="0"
               id="path3812"
               style="fill:#717344;fill-opacity:1;fill-rule:nonzero;stroke:none"
               d="m 0,0 c -1.776,1.401 -3.608,2.83 -5.493,4.307 -2.886,2.262 -5.486,4.774 -7.819,7.401 -1.951,-2.247 -3.964,-7.197 -4.54,-17.893 3.72,-6.186 7.767,-11.321 11.848,-15.576 C -7.438,-7.948 -3.175,-2.278 0,0" />
          </g>
          <g
             transform="translate(290,409.25)"
             id="g3814">
            <path
               inkscape:connector-curvature="0"
               id="path3816"
               style="fill:#717344;fill-opacity:1;fill-rule:nonzero;stroke:none"
               d="m 0,0 c -1.5,-8.75 -0.75,-13.75 -0.75,-13.75 2.844,-13.564 7.184,-24.604 12.229,-33.574 0.001,9.712 2.25,14.693 4.442,17.24 C 4.425,-16.214 0,0 0,0" />
          </g>
          <g
             transform="translate(335.5752,352.6489)"
             id="g3818">
            <path
               inkscape:connector-curvature="0"
               id="path3820"
               style="fill:#717344;fill-opacity:1;fill-rule:nonzero;stroke:none"
               d="m 0,0 c -8.466,-0.581 -8.779,-12.136 -8.11,-19.479 10.592,-7.154 19.035,-8.92 19.035,-8.92 C 11.497,-16.228 7.226,-7.749 0,0" />
          </g>
          <g
             transform="translate(335.5752,352.6489)"
             id="g3822">
            <path
               inkscape:connector-curvature="0"
               id="path3824"
               style="fill:#000000;fill-opacity:1;fill-rule:nonzero;stroke:none"
               d="m 0,0 c -0.49,0.526 -0.994,1.048 -1.511,1.568 -2.901,-0.628 -6.033,-2.025 -7.235,-5.091 -1.403,-3.578 -1.412,-9.902 -1.158,-14.703 0.603,-0.433 1.203,-0.854 1.794,-1.253 C -8.779,-12.136 -8.466,-0.581 0,0" />
          </g>
          <g
             transform="translate(322.9897,363.9087)"
             id="g3826">
            <path
               inkscape:connector-curvature="0"
               id="path3828"
               style="fill:#000000;fill-opacity:1;fill-rule:nonzero;stroke:none"
               d="m 0,0 c -0.738,0.59 -1.486,1.185 -2.247,1.784 -3.175,-2.278 -7.438,-7.948 -6.004,-21.761 0.947,-0.987 1.896,-1.929 2.843,-2.824 C -7.513,-9.781 -3.588,-3.201 0,0" />
          </g>
          <g
             transform="translate(326.8291,349.126)"
             id="g3830">
            <path
               inkscape:connector-curvature="0"
               id="path3832"
               style="fill:#717344;fill-opacity:1;fill-rule:nonzero;stroke:none"
               d="m 0,0 c 1.202,3.066 4.334,4.463 7.235,5.091 -3.231,3.25 -6.968,6.407 -11.074,9.692 -3.589,-3.201 -7.514,-9.781 -5.408,-22.801 2.743,-2.591 5.468,-4.802 8.089,-6.685 C -1.412,-9.902 -1.403,-3.578 0,0" />
          </g>
          <g
             transform="translate(346.75,365.5)"
             id="g3834">
            <path
               inkscape:connector-curvature="0"
               id="path3836"
               style="fill:#c1c8b8;fill-opacity:1;fill-rule:nonzero;stroke:none"
               d="m 0,0 c 0,0 11,-11.875 11.625,-18.875 0,0 3.375,6.125 12.125,7.875 0,0 -9.875,9.875 -23.75,11" />
          </g>
          <g
             transform="translate(286,350.375)"
             id="g3838">
            <path
               inkscape:connector-curvature="0"
               id="path3840"
               style="fill:#c1c8b8;fill-opacity:1;fill-rule:nonzero;stroke:none"
               d="m 0,0 c 0,0 5.375,-7.375 12.75,-5.375 0,0 7.375,-11.875 13.875,-16.875 0,0 -14.375,-10.625 -31.625,1.75 0,0 -2.25,5.25 -1.875,6.75 0,0 13.5,-7 20.375,-1.875 C 13.5,-15.625 1,-11.25 0,0" />
          </g>
          <g
             transform="translate(314.375,326.875)"
             id="g3842">
            <path
               inkscape:connector-curvature="0"
               id="path3844"
               style="fill:#c1c8b8;fill-opacity:1;fill-rule:nonzero;stroke:none"
               d="m 0,0 c 0,0 3.5,-3.125 4.375,-3.5 0,0 -14.125,-12.625 -31.125,-3.875 0,0 -3,0.875 -5.125,6.75 0,0 18.625,-10.75 31.875,0.625" />
          </g>
          <g
             transform="translate(320.125,322.125)"
             id="g3846">
            <path
               inkscape:connector-curvature="0"
               id="path3848"
               style="fill:#c1c8b8;fill-opacity:1;fill-rule:nonzero;stroke:none"
               d="m 0,0 4.375,-3.125 c 0,0 -4.25,-7.375 -13.75,-14.625 0,0 -15.125,6.125 -19.5,6.875 0,0 -3.875,5.125 -3.875,6.375 0,0 6.625,-3.25 12.75,-3.5 6.125,-0.25 16,3.625 20,8" />
          </g>
          <g
             transform="translate(396.125,351)"
             id="g3850">
            <path
               inkscape:connector-curvature="0"
               id="path3852"
               style="fill:#000000;fill-opacity:1;fill-rule:nonzero;stroke:none"
               d="m 0,0 c 0,0 17.625,-2.625 24.25,-21.375 0,0 1,20.625 -24.25,21.375" />
          </g>
          <g
             transform="translate(372.875,384.375)"
             id="g3854">
            <path
               inkscape:connector-curvature="0"
               id="path3856"
               style="fill:#000000;fill-opacity:1;fill-rule:nonzero;stroke:none"
               d="m 0,0 c 0,0 11.5,-1.875 12.25,-12.75 0,0 9.625,-0.75 12.625,-11.625 0,0 1.5,9.125 -9.75,13.5 0,0 -2,11.75 -15.125,10.875" />
          </g>
          <g
             transform="translate(469.3848,335.2793)"
             id="g3858">
            <path
               inkscape:connector-curvature="0"
               id="path3860"
               style="fill:#000000;fill-opacity:1;fill-rule:nonzero;stroke:none"
               d="m 0,0 c -0.824,-0.356 -1.657,-0.71 -2.481,-1.056 0.628,-3.84 0.035,-9.37 -6.337,-13.904 0.228,-0.489 0.431,-0.975 0.61,-1.452 C 0.477,-11.685 0.893,-4.611 0,0" />
          </g>
          <g
             transform="translate(466.9033,334.2236)"
             id="g3862">
            <path
               inkscape:connector-curvature="0"
               id="path3864"
               style="fill:#717344;fill-opacity:1;fill-rule:nonzero;stroke:none"
               d="m 0,0 c -4.812,-2.016 -9.278,-3.724 -9.278,-3.724 3.5,-4.125 -0.25,-5.875 -0.25,-5.875 1.409,-1.1 2.439,-2.698 3.191,-4.305 C 0.035,-9.371 0.629,-3.84 0,0" />
          </g>
          <g
             transform="translate(478.3896,339.4136)"
             id="g3866">
            <path
               inkscape:connector-curvature="0"
               id="path3868"
               style="fill:#717344;fill-opacity:1;fill-rule:nonzero;stroke:none"
               d="m 0,0 c 1.033,-2.503 1.982,-6.309 1.579,-11.333 0.011,0.015 0.022,0.029 0.031,0.044 8,12 26.125,13.375 26.125,13.375 C 19.258,4.068 6.716,2.461 0,0" />
          </g>
          <g
             transform="translate(476.4385,338.5845)"
             id="g3870">
            <path
               inkscape:connector-curvature="0"
               id="path3872"
               style="fill:#717344;fill-opacity:1;fill-rule:nonzero;stroke:none"
               d="m 0,0 c -0.143,-0.07 -0.306,-0.139 -0.438,-0.209 -1.726,-0.921 -4.123,-2.018 -6.616,-3.096 0.893,-4.611 0.477,-11.685 -8.208,-16.412 0.901,-2.407 1.199,-4.492 1.199,-4.492 0,0 5.292,0.966 11.29,6.356 C 1.723,-9.329 1.313,-3.52 0,0" />
          </g>
          <g
             transform="translate(478.3896,339.4136)"
             id="g3874">
            <path
               inkscape:connector-curvature="0"
               id="path3876"
               style="fill:#000000;fill-opacity:1;fill-rule:nonzero;stroke:none"
               d="m 0,0 c -0.729,-0.267 -1.372,-0.545 -1.951,-0.829 1.313,-3.52 1.722,-9.329 -2.774,-17.853 2.081,1.869 4.246,4.268 6.304,7.349 C 1.982,-6.309 1.033,-2.503 0,0" />
          </g>
          <g
             transform="translate(409.125,330.375)"
             id="g3878">
            <path
               inkscape:connector-curvature="0"
               id="path3880"
               style="fill:#738756;fill-opacity:1;fill-rule:nonzero;stroke:none"
               d="m 0,0 c 0,0 -16.5,9.375 -24.25,10.625 0,0 -5.5,-4.5 -7,-10.625 0,0 14.875,3.125 31.25,0" />
          </g>
          <g
             transform="translate(377.625,328.125)"
             id="g3882">
            <path
               inkscape:connector-curvature="0"
               id="path3884"
               style="fill:#738756;fill-opacity:1;fill-rule:nonzero;stroke:none"
               d="m 0,0 c 0,0 15.875,-10 37.875,-9 0,0 0.125,-2 -1.125,-2.25 C 35.5,-11.5 4.5,-15.625 0,0" />
          </g>
          <g
             transform="translate(379,322.25)"
             id="g3886">
            <path
               inkscape:connector-curvature="0"
               id="path3888"
               style="fill:#738756;fill-opacity:1;fill-rule:nonzero;stroke:none"
               d="m 0,0 c 0,0 8.625,-10 33.625,-7.5 0,0 -5.625,-5 -16,-4.75 C 7.25,-12 0.75,-3.25 0,0" />
          </g>
          <g
             transform="translate(380.375,329)"
             id="g3890">
            <path
               inkscape:connector-curvature="0"
               id="path3892"
               style="fill:#ffffff;fill-opacity:1;fill-rule:nonzero;stroke:none"
               d="m 0,0 c 7.221,-4.403 15.599,-6.572 22.455,-7.635 -1.65,2.511 -2.69,5.675 -3.307,8.126 C 10.004,0.84 0,0 0,0" />
          </g>
          <g
             transform="translate(406.75,328.875)"
             id="g3894">
            <path
               inkscape:connector-curvature="0"
               id="path3896"
               style="fill:#2c2f1e;fill-opacity:1;fill-rule:nonzero;stroke:none"
               d="m 0,0 c -1.926,0.289 -4.09,0.47 -6.326,0.576 0.754,-2.504 2.05,-5.75 4.163,-8.338 C 4.682,-8.677 9.625,-8.5 9.625,-8.5 10.5,-7.75 10.5,-5.125 10.5,-5.125 1.5,-9.625 0,0 0,0" />
          </g>
          <g
             transform="translate(399.5234,329.4907)"
             id="g3898">
            <path
               inkscape:connector-curvature="0"
               id="path3900"
               style="fill:#000000;fill-opacity:1;fill-rule:nonzero;stroke:none"
               d="M 0,0 C 0.616,-2.451 1.656,-5.615 3.307,-8.126 3.906,-8.219 4.489,-8.301 5.063,-8.377 2.95,-5.79 1.654,-2.543 0.9,-0.04 0.601,-0.025 0.302,-0.012 0,0" />
          </g>
          <g
             transform="translate(411.25,329)"
             id="g3902">
            <path
               inkscape:connector-curvature="0"
               id="path3904"
               style="fill:#ffffff;fill-opacity:1;fill-rule:nonzero;stroke:none"
               d="M 0,0 4.25,-2.125 C 4.25,-2.125 3.5,-5 0.875,-4 -1.75,-3 0,0 0,0" />
          </g>
          <g
             transform="translate(419.625,325.5)"
             id="g3906">
            <path
               inkscape:connector-curvature="0"
               id="path3908"
               style="fill:#a2b98d;fill-opacity:1;fill-rule:nonzero;stroke:none"
               d="m 0,0 -0.5,-5.25 c 0,0 6.25,1.125 7.625,-0.875 0,0 -7.875,1 -8.5,-1.625 0,0 3.25,-1.5 3.875,-2.5 0,0 5.75,2.5 7.375,2.375 0,0 -1.375,3.75 -1.5,5.125 0,0 -7.125,1.375 -8.375,2.75" />
          </g>
          <g
             transform="translate(430.25,322.75)"
             id="g3910">
            <path
               inkscape:connector-curvature="0"
               id="path3912"
               style="fill:#738756;fill-opacity:1;fill-rule:nonzero;stroke:none"
               d="m 0,0 c 0,0 17.125,-0.5 24.125,1.125 0,0 2.75,-1.625 2.875,-3.625 0,0 -23.5,-0.5 -26.75,-0.125 0,0 -0.625,1.875 -0.25,2.625" />
          </g>
          <g
             transform="translate(448.7393,318.4038)"
             id="g3914">
            <path
               inkscape:connector-curvature="0"
               id="path3916"
               style="fill:#ffffff;fill-opacity:1;fill-rule:nonzero;stroke:none"
               d="M 0,0 C -6.323,0.332 -17.489,0.471 -17.489,0.471 -12.386,-3.455 -5.06,-5.734 0.768,-7.018 -0.448,-4.044 -0.391,-1.675 0,0" />
          </g>
          <g
             transform="translate(459.25,311.75)"
             id="g3918">
            <path
               inkscape:connector-curvature="0"
               id="path3920"
               style="fill:#2c2f1e;fill-opacity:1;fill-rule:nonzero;stroke:none"
               d="m 0,0 c -5.875,0.375 -6.375,6.25 -6.375,6.25 -0.317,0.122 -1.341,0.229 -2.773,0.324 -0.368,-1.99 -0.261,-4.741 1.865,-7.442 4.05,-0.766 6.908,-1.007 6.908,-1.007 z" />
          </g>
          <g
             transform="translate(450.1016,318.3237)"
             id="g3922">
            <path
               inkscape:connector-curvature="0"
               id="path3924"
               style="fill:#000000;fill-opacity:1;fill-rule:nonzero;stroke:none"
               d="m 0,0 c -0.422,0.028 -0.876,0.055 -1.362,0.08 -0.391,-1.675 -0.449,-4.044 0.767,-7.018 0.857,-0.188 1.68,-0.356 2.46,-0.503 C -0.261,-4.741 -0.367,-1.99 0,0" />
          </g>
          <g
             transform="translate(458.625,318.75)"
             id="g3926">
            <path
               inkscape:connector-curvature="0"
               id="path3928"
               style="fill:#ffffff;fill-opacity:1;fill-rule:nonzero;stroke:none"
               d="m 0,0 c 0,0 1.375,-2.5 0.625,-3.625 0,0 -1.5,-0.75 -3,2.5 C -2.375,-1.125 -3,0 0,0" />
          </g>
          <g
             transform="translate(432.625,316.125)"
             id="g3930">
            <path
               inkscape:connector-curvature="0"
               id="path3932"
               style="fill:#738756;fill-opacity:1;fill-rule:nonzero;stroke:none"
               d="m 0,0 c 0,0 12.75,-6.625 25.875,-7.5 0,0 -2,-4 -4.125,-4.25 0,0 -10,1.75 -12,3.75 0,0 -0.625,3.5 -6.875,3.875 0,0 -2.5,2.25 -2.875,4.125" />
          </g>
          <g
             transform="translate(414.625,314.375)"
             id="g3934">
            <path
               inkscape:connector-curvature="0"
               id="path3936"
               style="fill:#a2b98d;fill-opacity:1;fill-rule:nonzero;stroke:none"
               d="m 0,0 c 0,0 2.875,3.75 6.875,-0.75 0,0 9.75,4.125 12.625,-2.5 0,0 6,0.125 5.5,-3.375 -0.5,-3.5 -5.25,-1.125 -5.5,1 0,0 -3.25,-3.375 -6.125,-2.625 -2.875,0.75 -3.5,4 -5.75,4.375 0,0 -5.75,-2.75 -7.625,3.875" />
          </g>
          <g
             transform="translate(441.125,306.625)"
             id="g3938">
            <path
               inkscape:connector-curvature="0"
               id="path3940"
               style="fill:#738756;fill-opacity:1;fill-rule:nonzero;stroke:none"
               d="m 0,0 c 0,0 8.5,-3.125 11.375,-3.25 0,0 -1.75,-1.875 -9.125,-1.625 0,0 -2.5,3.5 -2.25,4.875" />
          </g>
          <g
             transform="translate(440.125,289.125)"
             id="g3942">
            <path
               inkscape:connector-curvature="0"
               id="path3944"
               style="fill:#a2b98d;fill-opacity:1;fill-rule:nonzero;stroke:none"
               d="m 0,0 c 0,0 4.75,11.25 -1.5,15.125 0,0 -3.75,1.125 -4.75,2.125 0,0 -4.375,-3.125 -6.75,-2.375 -2.375,0.75 -3.875,4.375 -4.875,4.5 0,0 -5.625,-1.875 -9.375,4 0,0 -4.25,-3 -5.125,-5.375 -0.875,-2.375 -6.375,-9.125 -7.875,-10.125 0,0 10.625,0.375 12.875,-0.5 0,0 -0.375,4.75 -0.625,5.125 -0.25,0.375 3,-3.75 3.375,-5.5 0,0 3.25,-0.875 4.375,-1.75 0,0 0.875,7.5 -0.125,9.125 0,0 2.375,-1.125 2.5,-10.375 0,0 6.125,-4.375 6.375,-5.75 0,0 0.875,10.5 2,11.5 0,0 0.75,-9.5 0.5,-10.625 0,0 4.5,1.375 9,0.875" />
          </g>
          <g
             transform="translate(444.25,299.75)"
             id="g3946">
            <path
               inkscape:connector-curvature="0"
               id="path3948"
               style="fill:#a2b98d;fill-opacity:1;fill-rule:nonzero;stroke:none"
               d="m 0,0 c 0,0 9.375,0.25 13,3.25 0,0 6,-6 2.5,-12.25 -3.5,-6.25 -21.375,-15.375 -35.625,-19.25 l -0.625,1.5 c 0,0 26,9.25 20.75,26.75" />
          </g>
          <g
             transform="translate(418.1113,65.4287)"
             id="g3950">
            <path
               inkscape:connector-curvature="0"
               id="path3952"
               style="fill:#e4e7d6;fill-opacity:1;fill-rule:nonzero;stroke:none"
               d="m 0,0 c 0,0 -4.302,-14.745 -3.892,-21.163 0,0 13.859,0.273 15.703,-0.751 0,0 -9.695,14.882 -11.811,21.914" />
          </g>
        </g>
      </g>
    </g>
    <flowRoot
       xml:space="preserve"
       id="flowRoot4095"
       style="font-style:normal;font-variant:normal;font-weight:normal;font-stretch:normal;font-size:53.33333588px;line-height:25px;font-family:'Cooper Black';-inkscape-font-specification:'Cooper Black, Normal';font-variant-ligatures:normal;font-variant-caps:normal;font-variant-numeric:normal;font-feature-settings:normal;text-align:start;letter-spacing:0px;word-spacing:0px;writing-mode:lr-tb;text-anchor:start;fill:#000000;fill-opacity:1;stroke:none"
       transform="matrix(0.26458333,0,-0.09169804,0.26458333,31.251139,11.631128)"><flowRegion
         id="flowRegion4097"
         style="font-style:normal;font-variant:normal;font-weight:normal;font-stretch:normal;font-size:53.33333588px;font-family:'Cooper Black';-inkscape-font-specification:'Cooper Black, Normal';font-variant-ligatures:normal;font-variant-caps:normal;font-variant-numeric:normal;font-feature-settings:normal;text-align:start;writing-mode:lr-tb;text-anchor:start"><rect
           id="rect4099"
           width="707.14288"
           height="232.85715"
           x="562.85712"
           y="189.97617"
           style="font-style:normal;font-variant:normal;font-weight:normal;font-stretch:normal;font-size:53.33333588px;font-family:'Cooper Black';-inkscape-font-specification:'Cooper Black, Normal';font-variant-ligatures:normal;font-variant-caps:normal;font-variant-numeric:normal;font-feature-settings:normal;text-align:start;writing-mode:lr-tb;text-anchor:start" /></flowRegion><flowPara
         id="flowPara4103">To the dark side </flowPara><flowPara
         id="flowPara4105"></flowPara><flowPara
         id="flowPara4107">getters and setters lead. </flowPara></flowRoot>    <flowRoot
       xml:space="preserve"
       id="flowRoot4109"
       style="fill:black;fill-opacity:1;stroke:none;font-family:sans-serif;font-style:normal;font-weight:normal;font-size:40px;line-height:25px;letter-spacing:0px;word-spacing:0px"><flowRegion
         id="flowRegion4111"><rect
           id="rect4113"
           width="243.57143"
           height="124.28571"
           x="955.71429"
           y="301.40475" /></flowRegion><flowPara
         id="flowPara4115"></flowPara></flowRoot>  </g>
</svg>
